<?xml version="1.0" encoding="utf-8"?>
<!-- Generator: Adobe Illustrator 24.3.0, SVG Export Plug-In . SVG Version: 6.00 Build 0)  -->
<svg version="1.1" id="Layer_1" xmlns="http://www.w3.org/2000/svg" xmlns:xlink="http://www.w3.org/1999/xlink" x="0px" y="0px"
	 viewBox="0 0 320 512" style="enable-background:new 0 0 320 512;" xml:space="preserve">
<style type="text/css">
	.st0{enable-background:new    ;}
	.st1{fill:#FFFFFF;}
</style>
<g class="st0">
	<path class="st1" d="M49.9,145.9c19.8-19.8,43.1-33.2,69.9-40.2c26.8-7,53.6-7,80.4,0c26.8,7,50.1,20.3,69.9,40.2
		c19.8,19.8,33.2,43.1,40.2,69.9c7,26.8,7,53.6,0,80.4c-7,26.8-20.3,50.1-40.2,69.9c-19.8,19.8-43.1,33.2-69.9,40.2
		c-26.8,7-53.6,7-80.4,0c-26.8-7-50.1-20.3-69.9-40.2C30.1,346.3,16.7,323,9.7,296.2c-7-26.8-7-53.6,0-80.4
		C16.7,189,30.1,165.7,49.9,145.9z M236.4,204.5l-24.9-24.9c-1.5-1.5-3.3-2.2-5.3-2.2c-2.1,0-3.8,0.7-5.3,2.2L160,220.5l-40.8-40.8
		c-1.5-1.5-3.3-2.2-5.3-2.2c-2.1,0-3.8,0.7-5.3,2.2l-24.9,24.9c-1.5,1.5-2.2,3.3-2.2,5.3s0.7,3.8,2.2,5.3l40.8,40.8l-40.8,40.8
		c-1.5,1.5-2.2,3.3-2.2,5.3s0.7,3.8,2.2,5.3l24.9,24.9c1.5,1.5,3.3,2.2,5.3,2.2c2.1,0,3.8-0.7,5.3-2.2l40.8-40.8l40.8,40.8
		c1.5,1.5,3.3,2.2,5.3,2.2s3.8-0.7,5.3-2.2l24.9-24.9c1.5-1.5,2.2-3.3,2.2-5.3s-0.7-3.8-2.2-5.3L195.5,256l40.8-40.8
		c1.5-1.5,2.2-3.3,2.2-5.3S237.8,206,236.4,204.5z"/>
</g>
</svg>
