<?xml version="1.0" encoding="utf-8"?>
<!-- Generator: Adobe Illustrator 16.0.0, SVG Export Plug-In . SVG Version: 6.00 Build 0)  -->
<!DOCTYPE svg PUBLIC "-//W3C//DTD SVG 1.1//EN" "http://www.w3.org/Graphics/SVG/1.1/DTD/svg11.dtd">
<svg version="1.1" id="Layer_1" xmlns="http://www.w3.org/2000/svg" xmlns:xlink="http://www.w3.org/1999/xlink" x="0px" y="0px"
	 width="448.185px" height="94.704px" viewBox="0 0 448.185 94.704" enable-background="new 0 0 448.185 94.704"
	 xml:space="preserve">
<g>
	<path fill="#09183D" d="M196.747,2.036c-2.721,0.755-5.042,1.985-6.923,3.676c-4.24,3.856-6.39,8.947-6.39,15.129v48.87h10.299
		V32.105h14.848V21.635h-15.007c0.012-1.955,0.256-3.604,0.733-4.902c0.432-1.211,1.25-2.362,2.451-3.445
		c1.723-1.574,4.089-2.342,7.217-2.342h4.606V1h-4.606C201.711,1,199.28,1.347,196.747,2.036z"/>
	<path fill="#09183D" d="M132.764,23.771c-2.525-1.2-5.314-1.806-8.275-1.806h-21.233v10.14h22.826c0.994,0,1.861,0.232,2.651,0.717
		c0.798,0.484,1.414,1.124,1.894,1.95h-11.521c-3.392,0-6.576,0.696-9.464,2.069c-2.96,1.401-5.355,3.4-7.139,5.926
		c-1.808,2.584-2.79,5.53-2.916,8.87c0,3.185,0.692,6.194,2.064,8.931c1.389,2.798,3.355,5.062,5.844,6.731
		c2.55,1.711,5.396,2.578,8.459,2.578h25.571V37.646c0-3.171-0.815-6-2.419-8.418C137.525,26.848,135.395,25.012,132.764,23.771z
		 M131.387,60.1H118.42c-3.152,0-5.457-0.674-6.846-1.999c-1.369-1.304-2.037-3.081-2.037-5.433c0-1.319,0.358-2.518,1.092-3.657
		c0.794-1.214,1.82-2.155,3.14-2.863c1.327-0.72,2.684-1.073,4.133-1.073h13.484V60.1z"/>
	<path fill="#09183D" d="M47.604,35.783c0.55,1.449,0.835,3.025,0.835,4.695v26.658l10.136-4.101v-25.39
		c0-2.291-0.476-4.466-1.429-6.481c-0.921-1.96-2.204-3.693-3.825-5.173c-1.576-1.438-3.368-2.584-5.331-3.4
		c-1.987-0.818-4.081-1.262-6.296-1.312c-3.222,0-6.203,0.848-8.85,2.526c-1.275,0.81-2.403,1.738-3.381,2.787
		c-1.071-1.024-2.296-1.919-3.686-2.679c-2.757-1.51-5.803-2.28-9.171-2.28c-0.004,0-0.008,0-0.012,0
		c-3.152,0.12-6.056,1.084-8.629,2.863c-2.513,1.743-4.497,4.04-5.893,6.821C0.705,34.072,0,37.034,0,40.124v29.88l10.303-0.416
		V40.479c0-2.458,0.668-4.537,2.045-6.34c1.242-1.634,2.732-2.444,4.528-2.559c2.085,0,3.779,0.754,5.307,2.358
		c1.556,1.642,2.309,3.522,2.309,5.767v30.006h9.949V40.287c0-2.813,0.705-4.936,2.159-6.487c1.405-1.495,3.181-2.22,5.36-2.22
		c1.409,0.041,2.524,0.399,3.425,1.111C46.377,33.479,47.107,34.492,47.604,35.783z"/>
	<path fill="#09183D" d="M82.135,2.544c-0.709,0.71-1.556,1.974-1.556,3.97c0,1.544,0.562,2.892,1.608,3.882
		c1.014,0.973,2.342,1.486,3.844,1.486c1.446,0,2.749-0.514,3.751-1.474c1.059-1.003,1.62-2.351,1.62-3.895
		c0-1.996-0.842-3.26-1.551-3.97C87.792,0.482,84.126,0.556,82.135,2.544z"/>
	<path fill="#09183D" d="M81.267,72.276c0,2.298-0.452,4.37-1.389,6.342c-0.892,1.877-2.139,3.331-3.804,4.447
		c-1.637,1.091-3.531,1.645-5.747,1.689c-2.118,0-4.036-0.479-5.873-1.462c-1.82-0.973-3.229-2.276-4.317-3.98
		c-1.091-1.713-1.67-3.558-1.767-5.639l-0.062-1.271l-9.521,3.849c0.379,2.904,1.34,5.641,2.916,8.148
		c1.976,3.166,4.663,5.698,7.97,7.535c3.315,1.841,6.903,2.77,10.654,2.77h0.029h0.02c4.174-0.064,7.905-1.146,11.082-3.217
		c3.152-2.051,5.6-4.832,7.281-8.264c1.646-3.352,2.477-7.033,2.477-10.947V21.635h-9.949V72.276z"/>
	<path fill="#09183D" d="M165.352,2.036c-2.716,0.755-5.038,1.985-6.924,3.676c-4.239,3.86-6.39,8.953-6.39,15.129v48.87h10.304
		V32.105h14.848V21.635H162.18c0.016-1.955,0.261-3.6,0.732-4.902c0.432-1.211,1.259-2.362,2.452-3.445
		c1.727-1.574,4.093-2.342,7.229-2.342h4.598V1h-4.598C170.316,1,167.885,1.347,165.352,2.036z"/>
	<path fill="#09183D" d="M370.527,25.064c-3.833,2.072-6.895,4.971-9.107,8.609c-2.219,3.656-3.351,7.756-3.351,12.177
		c0,4.512,1.035,8.629,3.074,12.229c2.077,3.665,5.144,6.563,9.127,8.617c3.873,2,8.491,3.014,13.72,3.014h16.367v-9.949H384.41
		c-3.352,0-6.276-0.606-8.687-1.8c-2.333-1.157-4.072-2.737-5.306-4.822c-1.267-2.13-1.877-4.569-1.877-7.461
		c0-0.206,0.004-0.407,0.008-0.604h31.81V34.772h-26.634c0.399-0.325,0.823-0.618,1.279-0.88c2.057-1.205,4.215-1.787,6.601-1.787
		h18.754v-10.14h-17.218C378.565,21.966,374.322,23.008,370.527,25.064z"/>
	<path fill="#09183D" d="M221.952,25.064c-3.829,2.072-6.891,4.971-9.102,8.605c-2.22,3.654-3.348,7.754-3.348,12.181
		c0,4.512,1.03,8.629,3.071,12.229c2.077,3.665,5.139,6.563,9.122,8.617c3.881,2,8.503,3.014,13.729,3.014h16.368v-9.949h-15.949
		c-3.352,0-6.275-0.606-8.682-1.8c-2.342-1.157-4.077-2.739-5.319-4.822c-1.254-2.126-1.869-4.569-1.869-7.461
		c0-0.206,0-0.411,0.008-0.604h31.811V34.772h-26.638c0.399-0.325,0.822-0.618,1.274-0.88c2.061-1.205,4.219-1.787,6.602-1.787
		h18.762v-10.14h-17.215C229.995,21.966,225.747,23.008,221.952,25.064z"/>
	<path fill="#09183D" d="M322.34,25.064c-3.819,2.072-6.882,4.971-9.098,8.609c-2.22,3.656-3.348,7.756-3.348,12.177
		c0,4.512,1.034,8.629,3.071,12.229c2.073,3.665,5.14,6.564,9.122,8.617c3.877,2,8.496,3.014,13.729,3.014h16.363v-9.949h-15.948
		c-3.351,0-6.279-0.606-8.687-1.8c-2.337-1.157-4.072-2.739-5.31-4.822c-1.263-2.13-1.869-4.569-1.869-7.461
		c0-0.206,0-0.407,0.004-0.604h31.81V34.772h-26.634c0.399-0.325,0.826-0.618,1.279-0.88c2.057-1.205,4.215-1.787,6.597-1.787
		h18.758v-10.14h-17.218C330.392,21.966,326.144,23.008,322.34,25.064z"/>
	<path fill="#09183D" d="M446.829,42.782c-1.604-2.666-3.836-4.779-6.634-6.289c-2.762-1.484-5.889-2.237-9.302-2.237h-9.811
		c-3.226,0-4.138-0.405-4.17-0.363c-0.021-0.048-0.098-0.269-0.098-0.765c0-0.425,0.109-0.655,0.452-0.937
		c0.529-0.422,1.071-0.611,1.78-0.611h26.422v-9.945h-26.239c-2.044,0-4.011,0.465-5.857,1.381
		c-1.909,0.945-3.445,2.283-4.577,3.967c-1.173,1.751-1.768,3.682-1.768,5.734c0,1.999,0.456,3.898,1.36,5.66
		c0.912,1.788,2.195,3.246,3.811,4.325c1.694,1.12,3.589,1.687,5.653,1.687h13.378c1.499,0,2.847,0.342,4.105,1.039
		c1.25,0.695,2.216,1.62,2.948,2.838c0.713,1.19,1.063,2.464,1.063,3.894c0,1.355-0.325,2.59-1.001,3.775
		c-0.675,1.188-1.568,2.103-2.729,2.801c-1.141,0.677-2.317,1.011-3.617,1.011h-25.298v10.132h24.7c3.148,0,6.145-0.816,8.91-2.439
		c2.757-1.608,4.977-3.836,6.598-6.609c1.637-2.795,2.472-5.887,2.472-9.286C449.285,48.375,448.421,45.428,446.829,42.782z"/>
	<path fill="#09183D" d="M292.449,2.544c-0.708,0.71-1.556,1.974-1.556,3.97c0,1.539,0.558,2.888,1.604,3.878
		c1.018,0.977,2.346,1.49,3.852,1.49c1.442,0,2.746-0.514,3.747-1.474c1.059-1.003,1.617-2.351,1.617-3.895
		c0-1.996-0.839-3.26-1.543-3.962C298.113,0.482,294.456,0.543,292.449,2.544z"/>
	<path fill="#09183D" d="M268.859,39.017c0-1.409,0.256-2.69,0.773-3.907c0.46-1.057,1.156-1.899,2.146-2.561
		c0.949-0.641,2.244-0.969,3.826-0.969h8.268v-9.945h-8.597c-2.8,0-5.476,0.642-7.948,1.919c-2.517,1.297-4.557,3.128-6.072,5.44
		c-1.56,2.37-2.342,5.055-2.342,7.986v30.116l9.945-4.028V39.017z"/>
	<path fill="#09183D" d="M291.581,72.276c0,2.298-0.457,4.37-1.393,6.342c-0.892,1.877-2.134,3.331-3.795,4.447
		c-1.641,1.091-3.535,1.645-5.747,1.689c-2.122,0-4.04-0.479-5.876-1.462c-1.814-0.973-3.232-2.276-4.319-3.986
		c-1.091-1.703-1.666-3.548-1.763-5.633l-0.061-1.255l-9.518,3.853c0.379,2.895,1.34,5.624,2.908,8.134
		c1.979,3.16,4.663,5.692,7.97,7.529c3.323,1.841,6.9,2.77,10.659,2.77h0.021h0.024c4.171-0.064,7.901-1.146,11.077-3.217
		c3.156-2.051,5.6-4.835,7.286-8.264c1.641-3.348,2.472-7.033,2.472-10.947V21.635h-9.945V72.276z"/>
</g>
</svg>
